<?xml version="1.0" encoding="UTF-8"?>
<svg clip-rule="evenodd" fill-rule="evenodd" stroke-linejoin="round" stroke-miterlimit="2" version="1.1" viewBox="0 0 201.82 201.82" xml:space="preserve" xmlns="http://www.w3.org/2000/svg">
    <g transform="matrix(.29562 0 0 .29562 24.151 51.681)" stroke-width="1.3333">
        <path d="m-81.651 166.55v-341.33h682.67v682.67h-682.67z" fill="#fafdfc"/>
        <path d="m-36.318 506.42c-21.398-4.1788-39.802-23.068-43.99-45.149-1.8508-9.7593-1.8508-579.68 0-589.44 4.2964-22.655 22.675-41.074 45.172-45.272 9.8848-1.8448 579.75-1.8448 589.64 0 22.497 4.1987 40.875 22.618 45.172 45.272 0.87656 4.6221 1.3435 107.49 1.3435 295.96 0 313.96 0.42781 295.51-7.1984 310.45-4.0258 7.8886-13.647 17.563-21.975 22.095-14.757 8.0316 5.022 7.5625-312.11 7.4028-160.57-0.0809-292.73-0.66916-296.05-1.3178z" fill="#b1ddd9"/>
        <path d="m147.67 475.19c-29.971-30.003-32.958-32.626-36.323-31.894l-3.6667 0.7976-0.17817-18.439c-0.098-10.142-0.3302-27.139-0.516-37.773-0.1858-10.633-0.73657-71.381-1.2239-134.99l-0.8861-115.66 10.481-29.672c16.527-46.788 21.857-63.608 21.005-66.29-0.43486-1.3701-0.16623-2.877 0.59693-3.3486 0.76317-0.47167 1.3876-0.22216 1.3876 0.55445 0 4.1116 2.7053 0.30733 5.6436-7.9361 2.2988-6.4494 2.7358-8.8533 1.4093-7.7524-1.5112 1.2542-2.1725 1.1916-3.0896-0.2924-0.89259-1.4442-1.5949-0.87032-2.9873 2.4413-1.0012 2.3812-2.1018 4.048-2.4458 3.704-0.34395-0.34396-0.62538 0.51281-0.62538 1.9039 0 1.9097 0.41992 2.1808 1.7143 1.1066 2.8402-2.3572 1.9628 0.93223-0.95239 3.5705-1.4667 1.3273-2.6667 3.1468-2.6667 4.0434 0 0.89656-0.9 2.377-2 3.2899s-2 2.7864-2 4.1633c0 1.3769-0.81529 2.5034-1.8118 2.5034-4.473 0 1.4177-24.243 6.3507-26.135 2.1544-0.82672 10.36-14.448 9.7986-16.265-0.52261-1.6913 17.258-17.163 27.662-24.07 5.1333-3.4079 10.035-7.0961 10.893-8.1961 0.85755-1.1 2.2076-2.075 3-2.1667 0.79244-0.0916 2.0762-0.24167 2.8528-0.33333 0.77662-0.0916 1.0728-0.71557 0.65814-1.3865-0.41463-0.67089 1.9794-2.2636 5.32-3.5394 3.3406-1.2758 7.1842-3.7312 8.5412-5.4564 1.5484-1.9684 3.2622-2.8318 4.6013-2.3179 1.3986 0.53668 2.1339 0.09667 2.1339-1.2769 0-2.6172 4.0308-4.8562 8.7423-4.8562 2.9485 0 3.305 0.33651 2.0097 1.8972-0.866 1.0435 2.6605-0.21542 7.8367-2.7975 5.1762-2.5821 9.4113-5.1881 9.4113-5.7912 0-3.1717 45.961-7.5433 56.43-5.3675 10.226 2.1253 21.555 5.7691 22.903 7.3667 0.73334 0.86901 5.7693 2.9237 11.191 4.5659 5.4217 1.6422 13.222 4.8806 17.333 7.1963 15.751 8.871 20.989 12.39 20.524 13.786-0.26505 0.79516 1.3965 2.2238 3.6924 3.1748 4.7664 1.9743 18.593 15.478 18.593 18.159 0 0.9786 47.7 44.722 106 97.207l106 95.427-0.0436 130.26c-0.024 71.64-0.56524 134.3-1.2028 139.24-3.2942 25.548-22.894 45.225-48.754 48.947-5.8967 0.8488-75.86 1.3532-190.01 1.3699l-180.68 0.0264zm-17.364-434.64c0-0.73333-0.58161-0.43333-1.2925 0.66667s-1.2925 2.6-1.2925 3.3333c0 0.73333 0.58161 0.43333 1.2925-0.66667s1.2925-2.6 1.2925-3.3333zm21.512-30.395c-1.0731-1.0731-1.4605-0.4066-1.431 2.4618 0.0356 3.4481 0.21705 3.6297 1.4715 1.4715 1.0256-1.7643 1.0141-2.8787-0.0405-3.9333zm4.9844-7.4303c-0.31896-2.556 0.36548-4.2364 1.452-3.5649 0.68267 0.42192 1.5855 0.21 2.0064-0.47092 1.072-1.7346-2.566-1.0309-4.9654 0.96036-1.0928 0.90692-2.2742 3.152-2.6254 4.9891-0.60414 3.1603-0.50726 3.2214 1.7994 1.1339 1.3409-1.2135 2.3907-2.5849 2.333-3.0475zm158.88-44.175c-2.6112-1.6875-4.3762-1.6875-3.3333 0 0.45323 0.73333 1.8386 1.3241 3.0787 1.3129 1.943-0.0176 1.9782-0.19905 0.25464-1.3129zm-32-10.667c0-0.73333-0.63541-1.3333-1.412-1.3333-0.77661 0-1.0412 0.6-0.58797 1.3333s1.0886 1.3333 1.412 1.3333c0.32338 0 0.58797-0.6 0.58797-1.3333z" fill="#a7d7d2"/>
        <path d="m153.26 444.55c-4.7869-4.0279-6.1822-4.1018-12.591-0.66666-6.5731 3.523-9.2012 3.3643-13.086-0.78995-3.3296-3.5606-5.0303-3.6738-16.232-1.0812l-3.6667 0.84863-0.12466-55.155c-0.0687-30.335-0.28552-58.455-0.48194-62.489-0.19641-4.0333-0.53761-48.733-0.75822-99.333-0.39472-90.534-0.35678-92.117 2.3806-99.333 1.5299-4.0333 6.2058-16.933 10.391-28.667s8.1342-21.535 8.7762-21.781c0.642-0.24597 0.84869-0.96267 0.45933-1.5927-0.70665-1.1434 8.2874-29.032 9.9965-30.997 0.49604-0.57027 8.6395 19.23 18.097 44l17.195 45.037 0.70178 21.63c0.58233 17.948 1.0967 22.09 3.022 24.333 2.5164 2.932 5.013 3.5634 5.013 1.2678 0-0.78958 1.4651 0.30558 3.2558 2.4337 1.7907 2.1281 7.1857 5.5396 11.989 7.5809 4.8032 2.0414 8.4026 4.2462 7.9988 4.8996-0.40384 0.65342 1.0078 1.188 3.137 1.188 2.2627 0 5.4811 1.4232 7.7454 3.4249 2.1307 1.8837 7.6241 5.2271 12.207 7.4298 4.5833 2.2027 8.3333 4.6314 8.3333 5.3972s1.4699 1.1113 3.2665 0.76785c1.8638-0.35629 3.5345 0.0737 3.8905 1.0015 0.34318 0.89428 2.1551 1.9187 4.0265 2.2764 1.8714 0.35775 3.0853 0.13711 2.6975-0.49029-0.38774-0.6274-1.5342-1.1407-2.5476-1.1407s-2.2222-0.61415-2.6861-1.3648c-0.55536-0.89859 1.1257-1.0681 4.9213-0.49619 6.6565 1.003 9.2404 2.7118 5.9878 3.9599-4.0027 1.536-2.3335 2.6487 3.1839 2.1226 5.1866-0.49462 5.315-0.61716 3.1518-3.0074-2.1088-2.3302-2.1099-2.5475-0.016-3.351 1.2314-0.47255 2.6131-0.48506 3.0704-0.0277 0.45727 0.45727-0.31861 0.84963-1.7242 0.87194-2.4404 0.0387-2.446 0.10426-0.1256 1.4536 1.3455 0.78245 4.0232 0.98716 6 0.45868 3.069-0.82046 11.033-1.3665 35.123-2.4082 2.6873-0.11627 5.3264-0.65038 5.8646-1.187 0.53823-0.53665 2.4539-0.60544 4.2571-0.15286 1.8032 0.45256 3.6641 0.27777 4.1354-0.38842 1.2123-1.7137 8.5939-6.3738 10.19-6.4333 0.73333-0.0273 2.5333-1.0874 4-2.3558 17.203-14.877 17.872-15.725 15.434-19.576-0.9556-1.5096-1.8671-1.1136-4.6041 2-1.877 2.1352-3.4316 3.427-3.4548 2.8706-0.0232-0.55638 3.2916-4.7564 7.3661-9.3333 9.8832-11.102 9.9251-11.162 9.9251-14.102 0-1.4078 0.9-3.3066 2-4.2195 1.6676-1.3839 2-1.2039 2 1.0833 0 1.5087-0.58514 4.2822-1.3003 6.1633-1.0316 2.7134-0.89384 3.4201 0.66667 3.4201 1.0818 0 1.967-0.87889 1.967-1.9531s1.1246-2.555 2.4991-3.2906c1.9697-1.0542 2.4429-2.671 2.2338-7.633-0.28989-6.8798 1.5378-15.988 5.3528-26.673 2.1481-6.0169 2.6697-6.6044 4.1435-4.6667 1.4891 1.9578 1.691 1.7885 1.7284-1.4499 0.0233-2.0167 0.6424-3.6667 1.3757-3.6667 2.4933 0 1.4401 6.4531-1.1894 7.2876-3.1111 0.98742-3.7889 3.5587-3.0872 11.712 0.64497 7.4944 4.267 9.1827 4.291 2 8e-3 -2.3833 0.90794-7.2787 2-10.879 3.2187-10.61 2.6605-14.35-3.0144-20.199-2.75-2.8341-4.2885-4.7145-3.4189-4.1787 1.4266 0.87891 2.6476-3.6594 3.6891-13.711 0.11587-1.118 0.99388-3.6172 1.9512-5.5537 1.5209-3.0767 1.4079-4.002-0.89635-7.3333-8.4462-12.211-10.971-17.114-10.157-19.725 0.47194-1.5146 1.4391-3.1274 2.1492-3.5841 0.75084-0.48288-0.16133-3.4321-2.1797-7.0473-1.9091-3.4194-3.471-6.8891-3.471-7.7105s-1.5-3.4601-3.3333-5.8637c-1.8333-2.4036-3.3333-4.8926-3.3333-5.531 0-0.63841-2.0306-3.1289-4.5125-5.5344-2.9107-2.8212-4.286-5.2399-3.8743-6.8141 0.40624-1.5535-0.37662-2.9835-2.1542-3.9348-2.0002-1.0705-2.7923-1.0805-2.7923-0.03548 0 0.80241-0.6 1.0881-1.3333 0.63489-0.73333-0.45323-1.3333-1.8873-1.3333-3.1867 0-1.2995-1.5-3.1654-3.3333-4.1466-1.8333-0.98117-3.3333-2.5391-3.3333-3.462s-1.95-3.2044-4.3333-5.07c-4.0473-3.168-4.1133-3.344-1-2.6656 2.8447 0.61985 2.3994-0.15544-3.0382-5.2892-6.0593-5.7207-19.406-12.084-30.962-14.762-3.8066-0.88211-3.8711-0.82803-1.3333 1.1186 2.6114 2.0031 2.5976 2.0443-0.66667 1.9854-1.8333-0.03307-5.7333-0.80379-8.6667-1.7128l-5.3333-1.6527 6.3023-0.98851c6.6325-1.0403 9.0232-2.7071 5.7077-3.9794-1.0861-0.41679-7.0881-0.59088-13.338-0.38689-6.2497 0.204-10.608-0.10867-9.6843-0.69485 1.072-0.68052 0.33795-1.0731-2.0307-1.0862-2.0402-0.01067-5.8963-0.93413-8.5691-2.0509-2.6728-1.1168-5.2035-1.532-5.6238-0.92271-2.4549 3.5586-12.206 7.6981-10.098 4.2865 0.45323-0.73333 0.0387-1.3669-0.92131-1.4078-0.95994-0.04093 0.8268-1.1188 3.9706-2.3952s5.3782-2.6584 4.9654-3.0712c-2.1461-2.1461-15.374 1.6174-29.081 8.2739-3.3416 1.6228-4.5644 1.8946-3.0314 0.67393 5.1502-4.1013 1.1543-3.0594-10.475 2.7313-7.8626 3.9149-12.205 5.4268-12.804 4.4578-1.1744-1.9002-15.235 9.7394-22.134 18.323-2.8355 3.5277-6.6554 7.9339-8.4888 9.7915-1.8333 1.8576-4.393 5.3731-5.6881 7.8121-1.8534 3.4905-2.7396 4.1153-4.1624 2.9345-1.4391-1.1944-2.0146-0.61247-2.8231 2.8546-0.55855 2.3951-0.92756 5.0247-0.82002 5.8435 0.10747 0.81884-0.8624 2.3188-2.1554 3.3333-2.1467 1.6843-2.1879 1.6369-0.47411-0.54531 1.2398-1.5787 1.4284-2.8383 0.55556-3.7111-1.2856-1.2856-1.6787-0.1064-1.8765 5.63-0.0435 1.2596-1.5146 2.4708-3.4506 2.8409-3.1527 0.60268-3.3203 0.37183-2.5448-3.5053 0.45655-2.2827 2.9216-7.6614 5.4778-11.953 2.5562-4.2912 4.3115-8.3461 3.9006-9.011-0.41092-0.66487 1.3848-4.0009 3.9904-7.4133 5.7839-7.575 5.9357-8.881 0.73018-6.2842-4.8321 2.4106-5.8523 4.1993-8.048 14.111-1.7866 8.0651-5.9074 13.648-7.8061 10.576-0.71669-1.1596-2.156-0.04747-4.7123 3.6414-2.0243 2.921-3.3938 5.7962-3.0433 6.3893 0.35046 0.59307 0.12694 2.4283-0.49662 4.0783-1.2763 3.377-5.2198 4.1001-5.2198 0.95717 0-3.5073 3.784-11.291 5.8801-12.096 2.0107-0.77157 10.205-14.168 10.691-17.477 0.37776-2.5738 17.322-17.268 27.526-23.87 4.8198-3.1187 9.5433-6.6102 10.497-7.7589s2.5301-2.0886 3.5038-2.0886c0.97377 0 2.2503-0.85711 2.8368-1.9047 0.58644-1.0476 3.929-3.1317 7.4279-4.6314 3.4989-1.4997 6.7131-3.6426 7.1427-4.762 0.42954-1.1194 1.8957-2.0352 3.2581-2.0352 1.3624 0 3.0792-1.1251 3.8151-2.5001 1.5058-2.8136 6.3566-4.5577 7.5056-2.6986 0.41387 0.66967-0.18553 1.5775-1.332 2.0175-1.1465 0.43995-2.0845 1.3433-2.0845 2.0073 0 1.4832 18.311-7.531 22-10.83 3.2514-2.9078 28.826-6.6623 45.382-6.6623 11.436 0 31.658 4.952 34.618 8.4774 0.73334 0.87349 4.6333 2.405 8.6667 3.4033 11.693 2.8942 38.667 17.354 38.667 20.728 0 0.85995 1.95 2.5122 4.3333 3.6717 6.567 3.1949 15.057 11.075 17.517 16.258 1.2077 2.5451 5.5352 9.0149 9.6167 14.377 9.1192 11.981 12.186 17.378 9.2298 16.244-1.5991-0.61364-1.4461 0.48731 0.76113 5.4772 4.6884 10.599 9.151 23.711 8.4538 24.839-0.36495 0.59051 0.19561 4.8499 1.2457 9.4653 2.9039 12.763 4.0428 27.238 2.2313 28.358-0.94761 0.58565-1.0604 1.5199-0.30004 2.4862 1.7582 2.2345 2.8072 12.226 1.5048 14.333-0.61921 1.0019-0.52471 2.4939 0.2144 3.3845 0.87897 1.0591 0.85343 1.8822-0.0763 2.4568-0.76894 0.47522-1.3981 3.7932-1.3981 7.3733 0 3.5801-0.64861 6.9102-1.4414 7.4001-0.79275 0.48995-1.1344 2.1754-0.75927 3.7454 0.37515 1.57-0.17964 4.6545-1.2329 6.8545l-1.915 4 0.69964-3.6667c0.83046-4.3523-0.0216-4.7301-2.0635-0.91478-1.0932 2.0427-1.0632 3.2454 0.1164 4.6667 0.89186 1.0746 1.0118 1.9148 0.27346 1.9148-0.72362 0-2.2454 2.25-3.3818 5l-2.0661 5 0.56037-4.6667c0.48131-4.0083-0.0924-3.3498-4.0668 4.6667-2.5449 5.1333-4.3704 10.076-4.0565 10.984 0.31385 0.90788-0.15778 1.5079-1.0481 1.3333-0.89026-0.17453-1.6242 0.88267-1.6311 2.3493-0.0201 4.3387-3.0923 8.6707-5.4952 7.7487-1.7-0.65234-1.9444-0.2228-1.2028 2.1136 1.1276 3.5529-1.7554 7.9534-3.4328 5.2394-1.2511-2.0243-0.70075-2.6873-7.6628 9.2316-3.1056 5.3167-6.347 9.6667-7.2031 9.6667s-4.1022 2.4983-7.2134 5.5517c-3.1112 3.0534-6.734 5.646-8.0505 5.7612-2.4069 0.2107-11.336 4.6144-15.06 7.4279-1.7778 1.3428-1.7778 1.4361 0 0.83932 1.1-0.36925 4.25-1.6339 7-2.8103s5-1.919 5-1.65c0 0.26892-4.1481 3.2472-9.2179 6.6184-12.048 8.0115-23.138 12.74-20.726 8.8376 0.48408-0.78325-2.2173 0.14551-6.0031 2.0639-3.7858 1.9184-7.9498 3.1495-9.2534 2.7357-1.3036-0.41374-4.6017 0.18013-7.3291 1.3197-2.7274 1.1396-7.655 2.3448-10.95 2.6782s-7.0496 1.1727-8.3433 1.8651c-3.6308 1.9432-53.822 3.064-62.965 1.4061-7.8895-1.4306-15.066-4.1994-21.212-8.1836-1.8333-1.1885-6.5032-2.893-10.377-3.7879-5.3386-1.233-6.7131-2.0258-5.6771-3.2741 1.0003-1.2053 0.43616-2.0713-2.1028-3.2281l-3.4698-1.5809 0.98651 107.06 0.98652 107.06-8.5063 2.9878c-10.552 3.7064-10.755 3.7015-15.596-0.37254zm122.76-200.22c-0.91666-0.36988-2.4167-0.36988-3.3333 0s-0.16667 0.67252 1.6667 0.67252c1.8333 0 2.5833-0.30264 1.6667-0.67252zm-43-31.117c-2.6345-1.7025-7.0522-1.7025-6 0 0.45323 0.73334 2.4386 1.3242 4.412 1.3129 2.8064-0.016 3.1523-0.30198 1.588-1.3129zm-38.667-21.909c0-0.31672-1.7957-1.8545-3.9904-3.4172-2.6493-1.8865-3.7434-2.1978-3.2555-0.92651 0.40414 1.0532 2.0498 2.5504 3.657 3.327 3.5685 1.7244 3.5889 1.7302 3.5889 1.0167zm203.65-112.46c-1.998-2.4985-2.7709-0.95349-1.6526 3.3035 0.89011 3.3882 1.0723 3.4852 1.9954 1.0621 0.55952-1.4689 0.40556-3.4297-0.34279-4.3656zm-19.185-46.359c-0.43426-1.1316-1.0755-1.7715-1.425-1.422-0.34951 0.34951-0.23998 1.2754 0.2434 2.0575 1.3147 2.1273 2.0832 1.714 1.1816-0.63547zm-5.072-5.8538c-0.48339-0.78212-1.8935-1.403-3.1335-1.3796-1.9795 0.0372-1.9411 0.2796 0.31469 1.9862 2.7401 2.073 4.2713 1.7435 2.8188-0.60659zm24.747-10.372c-1.2808-2.2008-1.3903-2.1706-1.4277 0.3942-0.0451 3.0865 1.647 5.4931 2.3594 3.3558 0.25052-0.75155-0.16875-2.439-0.93168-3.75zm-3.4134-2.9615c-0.48338-0.78212-2.1935-1.4008-3.8002-1.3748-2.8172 0.0456-2.8026 0.11293 0.41001 1.8909 3.5655 1.9733 4.8115 1.7836 3.3902-0.51611zm-236.1-6.2044c3.2033-4.8888 1.7844-5.3212-1.7545-0.53459-1.6199 2.191-2.3963 3.9836-1.7253 3.9836s2.2368-1.5521 3.4798-3.449zm184.71-3.8843c-2.4849-1.8333-4.8515-3.3144-5.259-3.2912-1.4113 0.080267 6.7477 6.6245 8.2591 6.6245 0.83492 0-0.51511-1.5-3.0001-3.3333zm-170-7.3333c0.64425-2.2222 0.52194-2.8889-0.36695-2-0.73333 0.73333-1.7682 2.8333-2.2997 4.6667-0.64425 2.2222-0.52195 2.8889 0.36695 2 0.73333-0.73333 1.7682-2.8333 2.2997-4.6667zm170-4.46c0-0.25301-1.35-1.603-3-3l-3-2.54 2.54 3c2.387 2.8193 3.46 3.607 3.46 2.54zm-167.83-3.2067c1.6585-2.1147 1.6113-2.1619-0.50342-0.50341-2.221 1.7418-2.9273 2.8367-1.8299 2.8367 0.27687 0 1.3269-1.05 2.3333-2.3333zm171.83 0.33333c-0.91292-1.1-2.2598-2-2.9932-2-0.74378 0-0.59939 0.88435 0.32652 2 0.91292 1.1 2.2598 2 2.9932 2 0.74378 0 0.59939-0.88435-0.32652-2zm17.333-10.46c0-0.25301-1.35-1.603-3-3l-3-2.54 2.54 3c2.387 2.8193 3.46 3.607 3.46 2.54zm-158-2.2067c0.45323-0.73333 0.22404-1.3333-0.50929-1.3333-0.73334 0-1.7042 0.6-2.1574 1.3333-0.45322 0.73333-0.22404 1.3333 0.5093 1.3333 0.73333 0 1.7041-0.6 2.1574-1.3333zm150-6.6667c0-0.73333-0.63542-1.3333-1.412-1.3333s-1.0412 0.6-0.58797 1.3333c0.45322 0.73333 1.0886 1.3333 1.412 1.3333 0.32339 0 0.58798-0.6 0.58798-1.3333zm-84.676-6.6514c0.46712-0.75581-0.0681-0.97933-1.2546-0.52401-2.3099 0.88639-2.7325 1.8421-0.81462 1.8421 0.69006 0 1.6212-0.59313 2.0693-1.3181zm-8.6572-1.3486c0-0.73333-1.1646-1.3333-2.588-1.3333-1.4234 0-2.9588 0.6-3.412 1.3333-0.46736 0.75621 0.65283 1.3333 2.588 1.3333 1.8766 0 3.412-0.6 3.412-1.3333zm54.002-1.3358c0.89349-1.4457-4.7703-4.0633-8.4217-3.8922-1.8368 0.08607-1.8818 0.24331-0.24653 0.86218 1.1 0.4163 2.4798 1.5689 3.0662 2.5614 1.2506 2.1164 4.4197 2.3816 5.602 0.46867zm-45.002-10.25c-1.2833-0.33537-3.3833-0.33537-4.6667 0-1.2833 0.33537-0.23333 0.60976 2.3333 0.60976 2.5667 0 3.6167-0.27439 2.3333-0.60976zm21.667-0.41423c1.5643-1.0109 1.2184-1.2969-1.588-1.3129-1.9734-0.01123-3.9588 0.57958-4.412 1.3129-1.0522 1.7025 3.3655 1.7025 6 0zm-9.3333-1.3333c0-0.73333-1.1646-1.3333-2.588-1.3333s-2.9588 0.6-3.412 1.3333c-0.46736 0.75621 0.65283 1.3333 2.588 1.3333 1.8766 0 3.412-0.6 3.412-1.3333zm-156.48 98c0.42212-1.1 1.0033-2 1.2915-2 0.2882 0 0.52401 0.9 0.52401 2s-0.58117 2-1.2915 2c-0.71031 0-0.94612-0.9-0.52401-2zm13.856 0c0-0.73333 0.58162-2.2333 1.2925-3.3333s1.2925-1.4 1.2925-0.66667-0.58161 2.2333-1.2925 3.3333c-0.71088 1.1-1.2925 1.4-1.2925 0.66667zm181.04-48.244c0.9625-0.38516 2.1125-0.3378 2.5556 0.1052 0.44306 0.44305-0.34445 0.75819-1.75 0.70029-1.5533-0.064-1.8692-0.37992-0.80556-0.80555zm-49.083-23.089c-3.103-0.99376-3.1315-1.0767-0.41203-1.2004 1.6067-0.07307 3.2921 0.46709 3.7454 1.2004 0.45323 0.73333 0.63864 1.2735 0.41203 1.2004-0.22662-0.07309-1.912-0.61329-3.7454-1.2004zm-38.667-1.8573c0-0.28821 0.93116-0.88133 2.0692-1.3181 1.1866-0.45532 1.7218-0.2318 1.2546 0.52401-0.78301 1.2669-3.3239 1.8739-3.3239 0.79405z" fill="#d9cc72"/>
        <path d="m153.26 444.55c-4.7869-4.0279-6.1822-4.1018-12.591-0.66666-6.5731 3.523-9.2012 3.3643-13.086-0.78995-3.3296-3.5606-5.0303-3.6738-16.232-1.0812l-3.6667 0.84863-8e-3 -32.489c-0.0107-43.343-1.1925-183.97-1.9626-233.49-0.33922-21.817-0.18464-39.659 0.34352-39.65 0.52815 9e-3 2.3158 2.1091 3.9725 4.6667 1.6567 2.5576 3.5516 4.6502 4.2109 4.6502 0.65925 0 2.9037-2.6989 4.9877-5.9976 2.084-3.2987 4.2773-5.9987 4.8741-6 0.59675-1e-3 2.3968 2.945 4 6.5474l2.915 6.5497 4.8903-9.5497 4.8903-9.5497 2.854 6.6667c1.5697 3.6667 3.3084 7.8188 3.8638 9.227 0.8835 2.24 1.5693 1.7813 5.4818-3.6667 2.4596-3.4249 5.0034-6.227 5.6531-6.227 0.64965 0 2.428 3 3.9517 6.6667 1.5238 3.6667 3.1416 6.6667 3.5951 6.6667 0.45349 0 2.3235-2.8304 4.1556-6.2897l3.3311-6.2897 0.66666 20.252c0.54867 16.668 1.0774 20.731 2.987 22.956 2.5162 2.9326 5.013 3.5645 5.013 1.2686 0-0.78958 1.4651 0.30558 3.2558 2.4337 1.7907 2.1281 7.1857 5.5396 11.989 7.5809 4.8032 2.0414 8.4026 4.2462 7.9988 4.8996-0.40384 0.65342 1.0078 1.188 3.137 1.188 2.2627 0 5.4811 1.4232 7.7454 3.4249 2.1307 1.8837 7.6241 5.2271 12.207 7.4298 4.5833 2.2027 8.3333 4.6314 8.3333 5.3972s1.4699 1.1113 3.2665 0.76785c1.8638-0.35629 3.5345 0.0737 3.8905 1.0015 0.34318 0.89428 2.1551 1.9187 4.0265 2.2764 1.8714 0.35775 3.0853 0.13711 2.6975-0.49029-0.38774-0.6274-1.5342-1.1407-2.5476-1.1407s-2.2222-0.61415-2.6861-1.3648c-0.55536-0.89859 1.1257-1.0681 4.9213-0.49619 6.6565 1.003 9.2404 2.7118 5.9878 3.9599-4.0027 1.536-2.3335 2.6487 3.1839 2.1226 5.1866-0.49462 5.315-0.61716 3.1518-3.0074-2.1088-2.3302-2.1099-2.5475-0.016-3.351 1.2314-0.47255 2.6131-0.48506 3.0704-0.0277 0.45727 0.45727-0.31861 0.84963-1.7242 0.87194-2.4404 0.0387-2.446 0.10426-0.1256 1.4536 1.3455 0.78245 4.0232 0.98716 6 0.45868 3.069-0.82046 11.033-1.3665 35.123-2.4082 2.6873-0.11627 5.3264-0.65038 5.8646-1.187 0.53823-0.53665 2.4539-0.60544 4.2571-0.15286 1.8032 0.45256 3.6641 0.27777 4.1354-0.38842 1.2123-1.7137 8.5939-6.3738 10.19-6.4333 0.73333-0.0273 2.5333-1.0874 4-2.3558 17.203-14.877 17.872-15.725 15.434-19.576-0.9556-1.5096-1.8671-1.1136-4.6041 2-1.877 2.1352-3.4316 3.427-3.4548 2.8706-0.0232-0.55638 3.2916-4.7564 7.3661-9.3333 9.8832-11.102 9.9251-11.162 9.9251-14.102 0-1.4078 0.9-3.3066 2-4.2195 1.6676-1.3839 2-1.2039 2 1.0833 0 1.5087-0.58514 4.2822-1.3003 6.1633-1.0316 2.7134-0.89384 3.4201 0.66667 3.4201 1.0818 0 1.967-0.87889 1.967-1.9531s1.1246-2.555 2.4991-3.2906c1.9697-1.0542 2.4429-2.671 2.2338-7.633-0.28989-6.8798 1.5378-15.988 5.3528-26.673 2.1481-6.0169 2.6697-6.6044 4.1435-4.6667 1.4891 1.9578 1.691 1.7885 1.7284-1.4499 0.0233-2.0167 0.6424-3.6667 1.3757-3.6667 2.4933 0 1.4401 6.4531-1.1894 7.2876-3.1111 0.98742-3.7889 3.5587-3.0872 11.712 0.64497 7.4944 4.267 9.1827 4.291 2 8e-3 -2.3833 0.90794-7.2787 2-10.879 3.2187-10.61 2.6605-14.35-3.0144-20.199-2.75-2.8341-4.2885-4.7145-3.4189-4.1787 1.4266 0.87891 2.6476-3.6594 3.6891-13.711 0.11587-1.118 0.99388-3.6172 1.9512-5.5537 1.5209-3.0767 1.4079-4.002-0.89635-7.3333-8.4462-12.211-10.971-17.114-10.157-19.725 0.47194-1.5146 1.4391-3.1274 2.1492-3.5841 0.75084-0.48288-0.16133-3.4321-2.1797-7.0473-1.9091-3.4194-3.471-6.8891-3.471-7.7105s-1.5-3.4601-3.3333-5.8637c-1.8333-2.4036-3.3333-4.8926-3.3333-5.531 0-0.63841-2.0306-3.1289-4.5125-5.5344-2.9107-2.8212-4.286-5.2399-3.8743-6.8141 0.40624-1.5535-0.37662-2.9835-2.1542-3.9348-2.0002-1.0705-2.7923-1.0805-2.7923-0.03548 0 0.80241-0.6 1.0881-1.3333 0.63489-0.73333-0.45323-1.3333-1.8873-1.3333-3.1867 0-1.2995-1.5-3.1654-3.3333-4.1466-1.8333-0.98117-3.3333-2.5391-3.3333-3.462s-1.95-3.2044-4.3333-5.07c-4.0473-3.168-4.1133-3.344-1-2.6656 2.8447 0.61985 2.3994-0.15544-3.0382-5.2892-6.0593-5.7207-19.406-12.084-30.962-14.762-3.8066-0.88211-3.8711-0.82803-1.3333 1.1186 2.6114 2.0031 2.5976 2.0443-0.66667 1.9854-1.8333-0.03307-5.7333-0.80379-8.6667-1.7128l-5.3333-1.6527 6.3023-0.98851c6.6325-1.0403 9.0232-2.7071 5.7077-3.9794-1.0861-0.41679-7.0881-0.59088-13.338-0.38689-6.2497 0.204-10.608-0.10867-9.6843-0.69485 1.072-0.68052 0.33795-1.0731-2.0307-1.0862-2.0402-0.01067-5.8963-0.93413-8.5691-2.0509-2.6728-1.1168-5.2035-1.532-5.6238-0.92271-2.4549 3.5586-12.206 7.6981-10.098 4.2865 0.45323-0.73333 0.0387-1.3669-0.92131-1.4078-0.95994-0.04093 0.8268-1.1188 3.9706-2.3952s5.3782-2.6584 4.9654-3.0712c-2.1461-2.1461-15.374 1.6174-29.081 8.2739-3.3416 1.6228-4.5644 1.8946-3.0314 0.67393 5.1502-4.1013 1.1543-3.0594-10.475 2.7313-7.8626 3.9149-12.205 5.4268-12.804 4.4578-1.1744-1.9002-15.235 9.7394-22.134 18.323-2.8355 3.5277-6.6554 7.9339-8.4888 9.7915-1.8333 1.8576-4.393 5.3731-5.6881 7.8121-1.8534 3.4905-2.7396 4.1153-4.1624 2.9345-1.4391-1.1944-2.0146-0.61247-2.8231 2.8546-0.55855 2.3951-0.92756 5.0247-0.82002 5.8435 0.10747 0.81884-0.8624 2.3188-2.1554 3.3333-2.1467 1.6843-2.1879 1.6369-0.47411-0.54531 1.2398-1.5787 1.4284-2.8383 0.55556-3.7111-1.2856-1.2856-1.6787-0.1064-1.8765 5.63-0.0435 1.2596-1.5146 2.4708-3.4506 2.8409-3.1527 0.60268-3.3203 0.37183-2.5448-3.5053 0.45655-2.2827 2.9216-7.6614 5.4778-11.953 2.5562-4.2912 4.3115-8.3461 3.9006-9.011-0.41092-0.66487 1.3848-4.0009 3.9904-7.4133 5.7839-7.575 5.9357-8.881 0.73018-6.2842-4.8321 2.4106-5.8523 4.1993-8.048 14.111-1.7866 8.0651-5.9074 13.648-7.8061 10.576-0.71669-1.1596-2.156-0.04747-4.7123 3.6414-2.0243 2.921-3.3938 5.7962-3.0433 6.3893 0.35046 0.59307 0.12694 2.4283-0.49662 4.0783-1.2763 3.377-5.2198 4.1001-5.2198 0.95717 0-3.5073 3.784-11.291 5.8801-12.096 2.0107-0.77157 10.205-14.168 10.691-17.477 0.37776-2.5738 17.322-17.268 27.526-23.87 4.8198-3.1187 9.5433-6.6102 10.497-7.7589s2.5301-2.0886 3.5038-2.0886c0.97377 0 2.2503-0.85711 2.8368-1.9047 0.58644-1.0476 3.929-3.1317 7.4279-4.6314 3.4989-1.4997 6.7131-3.6426 7.1427-4.762 0.42954-1.1194 1.8957-2.0352 3.2581-2.0352 1.3624 0 3.0792-1.1251 3.8151-2.5001 1.5058-2.8136 6.3566-4.5577 7.5056-2.6986 0.41387 0.66967-0.18553 1.5775-1.332 2.0175-1.1465 0.43995-2.0845 1.3433-2.0845 2.0073 0 1.4832 18.311-7.531 22-10.83 3.2514-2.9078 28.826-6.6623 45.382-6.6623 11.436 0 31.658 4.952 34.618 8.4774 0.73334 0.87349 4.6333 2.405 8.6667 3.4033 11.693 2.8942 38.667 17.354 38.667 20.728 0 0.85995 1.95 2.5122 4.3333 3.6717 6.567 3.1949 15.057 11.075 17.517 16.258 1.2077 2.5451 5.5352 9.0149 9.6167 14.377 9.1192 11.981 12.186 17.378 9.2298 16.244-1.5991-0.61364-1.4461 0.48731 0.76113 5.4772 4.6884 10.599 9.151 23.711 8.4538 24.839-0.36495 0.59051 0.19561 4.8499 1.2457 9.4653 2.9039 12.763 4.0428 27.238 2.2313 28.358-0.94761 0.58565-1.0604 1.5199-0.30004 2.4862 1.7582 2.2345 2.8072 12.226 1.5048 14.333-0.61921 1.0019-0.52471 2.4939 0.2144 3.3845 0.87897 1.0591 0.85343 1.8822-0.0763 2.4568-0.76894 0.47522-1.3981 3.7932-1.3981 7.3733 0 3.5801-0.64861 6.9102-1.4414 7.4001-0.79275 0.48995-1.1344 2.1754-0.75927 3.7454 0.37515 1.57-0.17964 4.6545-1.2329 6.8545l-1.915 4 0.69964-3.6667c0.83046-4.3523-0.0216-4.7301-2.0635-0.91478-1.0932 2.0427-1.0632 3.2454 0.1164 4.6667 0.89186 1.0746 1.0118 1.9148 0.27346 1.9148-0.72362 0-2.2454 2.25-3.3818 5l-2.0661 5 0.56037-4.6667c0.48131-4.0083-0.0924-3.3498-4.0668 4.6667-2.5449 5.1333-4.3704 10.076-4.0565 10.984 0.31385 0.90788-0.15778 1.5079-1.0481 1.3333-0.89026-0.17453-1.6242 0.88267-1.6311 2.3493-0.0201 4.3387-3.0923 8.6707-5.4952 7.7487-1.7-0.65234-1.9444-0.2228-1.2028 2.1136 1.1276 3.5529-1.7554 7.9534-3.4328 5.2394-1.2511-2.0243-0.70075-2.6873-7.6628 9.2316-3.1056 5.3167-6.347 9.6667-7.2031 9.6667s-4.1022 2.4983-7.2134 5.5517c-3.1112 3.0534-6.734 5.646-8.0505 5.7612-2.4069 0.2107-11.336 4.6144-15.06 7.4279-1.7778 1.3428-1.7778 1.4361 0 0.83932 1.1-0.36925 4.25-1.6339 7-2.8103s5-1.919 5-1.65c0 0.26892-4.1481 3.2472-9.2179 6.6184-12.048 8.0115-23.138 12.74-20.726 8.8376 0.48408-0.78325-2.2173 0.14551-6.0031 2.0639-3.7858 1.9184-7.9498 3.1495-9.2534 2.7357-1.3036-0.41374-4.6017 0.18013-7.3291 1.3197-2.7274 1.1396-7.655 2.3448-10.95 2.6782s-7.0496 1.1727-8.3433 1.8651c-3.6308 1.9432-53.822 3.064-62.965 1.4061-7.8895-1.4306-15.066-4.1994-21.212-8.1836-1.8333-1.1885-6.5032-2.893-10.377-3.7879-5.3386-1.233-6.7131-2.0258-5.6771-3.2741 1.0003-1.2053 0.43616-2.0713-2.1028-3.2281l-3.4698-1.5809 0.98651 107.06 0.98652 107.06-8.5063 2.9878c-10.552 3.7064-10.755 3.7015-15.596-0.37254zm122.76-200.22c-0.91666-0.36988-2.4167-0.36988-3.3333 0s-0.16667 0.67252 1.6667 0.67252c1.8333 0 2.5833-0.30264 1.6667-0.67252zm-43-31.117c-2.6345-1.7025-7.0522-1.7025-6 0 0.45323 0.73334 2.4386 1.3242 4.412 1.3129 2.8064-0.016 3.1523-0.30198 1.588-1.3129zm-38.667-21.909c0-0.31672-1.7957-1.8545-3.9904-3.4172-2.6493-1.8865-3.7434-2.1978-3.2555-0.92651 0.40414 1.0532 2.0498 2.5504 3.657 3.327 3.5685 1.7244 3.5889 1.7302 3.5889 1.0167zm203.65-112.46c-1.998-2.4985-2.7709-0.95349-1.6526 3.3035 0.89011 3.3882 1.0723 3.4852 1.9954 1.0621 0.55952-1.4689 0.40556-3.4297-0.34279-4.3656zm-19.185-46.359c-0.43426-1.1316-1.0755-1.7715-1.425-1.422-0.34951 0.34951-0.23998 1.2754 0.2434 2.0575 1.3147 2.1273 2.0832 1.714 1.1816-0.63547zm-5.072-5.8538c-0.48339-0.78212-1.8935-1.403-3.1335-1.3796-1.9795 0.0372-1.9411 0.2796 0.31469 1.9862 2.7401 2.073 4.2713 1.7435 2.8188-0.60659zm24.747-10.372c-1.2808-2.2008-1.3903-2.1706-1.4277 0.3942-0.0451 3.0865 1.647 5.4931 2.3594 3.3558 0.25052-0.75155-0.16875-2.439-0.93168-3.75zm-3.4134-2.9615c-0.48338-0.78212-2.1935-1.4008-3.8002-1.3748-2.8172 0.0456-2.8026 0.11293 0.41001 1.8909 3.5655 1.9733 4.8115 1.7836 3.3902-0.51611zm-236.1-6.2044c3.2033-4.8888 1.7844-5.3212-1.7545-0.53459-1.6199 2.191-2.3963 3.9836-1.7253 3.9836s2.2368-1.5521 3.4798-3.449zm184.71-3.8843c-2.4849-1.8333-4.8515-3.3144-5.259-3.2912-1.4113 0.080267 6.7477 6.6245 8.2591 6.6245 0.83492 0-0.51511-1.5-3.0001-3.3333zm-170-7.3333c0.64425-2.2222 0.52194-2.8889-0.36695-2-0.73333 0.73333-1.7682 2.8333-2.2997 4.6667-0.64425 2.2222-0.52195 2.8889 0.36695 2 0.73333-0.73333 1.7682-2.8333 2.2997-4.6667zm170-4.46c0-0.25301-1.35-1.603-3-3l-3-2.54 2.54 3c2.387 2.8193 3.46 3.607 3.46 2.54zm-167.83-3.2067c1.6585-2.1147 1.6113-2.1619-0.50342-0.50341-2.221 1.7418-2.9273 2.8367-1.8299 2.8367 0.27687 0 1.3269-1.05 2.3333-2.3333zm171.83 0.33333c-0.91292-1.1-2.2598-2-2.9932-2-0.74378 0-0.59939 0.88435 0.32652 2 0.91292 1.1 2.2598 2 2.9932 2 0.74378 0 0.59939-0.88435-0.32652-2zm17.333-10.46c0-0.25301-1.35-1.603-3-3l-3-2.54 2.54 3c2.387 2.8193 3.46 3.607 3.46 2.54zm-158-2.2067c0.45323-0.73333 0.22404-1.3333-0.50929-1.3333-0.73334 0-1.7042 0.6-2.1574 1.3333-0.45322 0.73333-0.22404 1.3333 0.5093 1.3333 0.73333 0 1.7041-0.6 2.1574-1.3333zm150-6.6667c0-0.73333-0.63542-1.3333-1.412-1.3333s-1.0412 0.6-0.58797 1.3333c0.45322 0.73333 1.0886 1.3333 1.412 1.3333 0.32339 0 0.58798-0.6 0.58798-1.3333zm-84.676-6.6514c0.46712-0.75581-0.0681-0.97933-1.2546-0.52401-2.3099 0.88639-2.7325 1.8421-0.81462 1.8421 0.69006 0 1.6212-0.59313 2.0693-1.3181zm-8.6572-1.3486c0-0.73333-1.1646-1.3333-2.588-1.3333-1.4234 0-2.9588 0.6-3.412 1.3333-0.46736 0.75621 0.65283 1.3333 2.588 1.3333 1.8766 0 3.412-0.6 3.412-1.3333zm54.002-1.3358c0.89349-1.4457-4.7703-4.0633-8.4217-3.8922-1.8368 0.08607-1.8818 0.24331-0.24653 0.86218 1.1 0.4163 2.4798 1.5689 3.0662 2.5614 1.2506 2.1164 4.4197 2.3816 5.602 0.46867zm-45.002-10.25c-1.2833-0.33537-3.3833-0.33537-4.6667 0-1.2833 0.33537-0.23333 0.60976 2.3333 0.60976 2.5667 0 3.6167-0.27439 2.3333-0.60976zm21.667-0.41423c1.5643-1.0109 1.2184-1.2969-1.588-1.3129-1.9734-0.01123-3.9588 0.57958-4.412 1.3129-1.0522 1.7025 3.3655 1.7025 6 0zm-9.3333-1.3333c0-0.73333-1.1646-1.3333-2.588-1.3333s-2.9588 0.6-3.412 1.3333c-0.46736 0.75621 0.65283 1.3333 2.588 1.3333 1.8766 0 3.412-0.6 3.412-1.3333zm-155.18 127.61c-2.2204-1.6236-2.0682-2.5744 2.6135-16.333 2.7341-8.0352 5.3697-15.069 5.8569-15.63 0.4872-0.56145 3.6459 6.2226 7.0194 15.076l6.1335 16.097-3.3078 1.2576c-4.7831 1.8185-15.566 1.544-18.315-0.46629zm-1.3009-29.609c0.42212-1.1 1.0033-2 1.2915-2 0.2882 0 0.52401 0.9 0.52401 2s-0.58117 2-1.2915 2c-0.71031 0-0.94612-0.9-0.52401-2zm13.856 0c0-0.73333 0.58162-2.2333 1.2925-3.3333s1.2925-1.4 1.2925-0.66667-0.58161 2.2333-1.2925 3.3333c-0.71088 1.1-1.2925 1.4-1.2925 0.66667zm181.04-48.244c0.9625-0.38516 2.1125-0.3378 2.5556 0.1052 0.44306 0.44305-0.34445 0.75819-1.75 0.70029-1.5533-0.064-1.8692-0.37992-0.80556-0.80555zm-49.083-23.089c-3.103-0.99376-3.1315-1.0767-0.41203-1.2004 1.6067-0.07307 3.2921 0.46709 3.7454 1.2004 0.45323 0.73333 0.63864 1.2735 0.41203 1.2004-0.22662-0.07309-1.912-0.61329-3.7454-1.2004zm-38.667-1.8573c0-0.28821 0.93116-0.88133 2.0692-1.3181 1.1866-0.45532 1.7218-0.2318 1.2546 0.52401-0.78301 1.2669-3.3239 1.8739-3.3239 0.79405z" fill="#38c7db"/>
        <path d="m154.21 444.45c-5.3233-3.9274-7.7556-4.0222-14.53-0.566-6.8544 3.4968-7.7862 3.397-12.694-1.3598l-4.1542-4.0264-5.8499 2.064c-3.2174 1.1352-6.591 1.7796-7.4968 1.432-1.2446-0.4776-1.6622-8.8736-1.7096-34.371-0.0345-18.556-0.43026-87.139-0.8795-152.41l-0.8168-118.67 3.5151 5c1.9333 2.75 4.0384 5 4.6779 5s2.8679-2.6989 4.9519-5.9976c2.084-3.2987 4.273-5.9987 4.8646-6 0.5915-1e-3 2.4119 3.0259 4.0454 6.7271l2.9699 6.7295 4.5156-9.3342c2.4836-5.1338 4.9882-9.042 5.5659-8.685 0.57766 0.35701 2.3556 4.2291 3.951 8.6047 1.5954 4.3756 3.2704 7.9337 3.7221 7.9069 0.45175-0.0268 2.5184-2.7268 4.5925-6 2.0741-3.2732 4.3574-5.9513 5.0739-5.9513 0.7165 0 2.5495 3 4.0733 6.6667 1.5238 3.6667 3.1416 6.6667 3.5951 6.6667 0.4535 0 2.2626-2.7109 4.0203-6.0241 1.7577-3.3133 3.3294-5.8633 3.4926-5.6667 0.16324 0.1966 0.67474 39.057 1.1367 86.357 0.46194 47.3 1.2304 116.06 1.7076 152.8l0.86774 66.805-3.2025 0.84743c-1.7614 0.46608-5.9973 1.7087-9.4132 2.7614-5.9708 1.84-6.38 1.789-10.592-1.3187zm-24.123-368.8c-2.0946-1.6416-1.8998-2.8059 2.6785-16.004 2.7156-7.8287 5.3072-14.604 5.7591-15.056 0.4519-0.45191 3.3903 6.1097 6.5297 14.581 3.1394 8.4717 5.2913 15.82 4.782 16.329-1.8575 1.8575-17.42 1.9754-19.749 0.14965z" fill="#009284"/>
        <path d="m142.24 400.22c-0.0596-8.6167-0.30349-17.467-0.54202-19.667-0.23854-2.2-0.73618-58.6-1.1059-125.33-0.36968-66.733-0.18397-115.93 0.4127-109.33 1.3346 14.763 3.4292 270 2.2157 270-0.47973 0-0.92098-7.05-0.98056-15.667zm20.958-9.3333c-1.0065-7.673-2.8213-234.61-1.8687-233.67 1.6001 1.588 4.9783 240 3.4007 240-0.38572 0-1.0751-2.85-1.532-6.3333zm-41.45-3.3333c-1.5247-4.9151-3.0907-231.09-1.6103-232.57 0.75773-0.75773 2.1451 73.078 2.992 159.23 0.40548 41.25 0.3768 75-0.0637 75-0.44054 0-1.0336-0.75-1.318-1.6667z" fill="#018579"/>
        <path d="m142.19 386.22c-0.0876-12.65-0.28864-26.3-0.44668-30.333-0.71687-18.295-2.2821-208.59-1.7108-208 1.4519 1.5076 2.3566 43.919 3.1928 149.67 0.48564 61.417 0.48721 111.67 4e-3 111.67-0.4837 0-0.95115-10.35-1.0388-23zm-20.963-15.667c0-1.8333 0.30264-2.5833 0.67252-1.6667 0.36988 0.91666 0.36988 2.4167 0 3.3333s-0.67252 0.16667-0.67252-1.6667zm-0.21716-7.6667c-4e-3 -2.0167-0.21845-46.867-0.47735-99.667-0.25888-52.8-0.10586-83.1 0.33998-67.333 1.107 39.144 1.782 170.67 0.87592 170.67-0.40255 0-0.7349-1.65-0.73855-3.6667zm41.333-5.7778c-4e-3 -5.4389-0.38615-50.689-0.84983-100.56-0.46366-49.867-0.54069-90.367-0.17116-90 1.7287 1.7153 3.4364 198.04 1.7374 199.73-0.39032 0.39031-0.71272-3.7404-0.71644-9.1792zm-22.4-213.89c0.0272-2.2 0.326-2.9386 0.66405-1.6413 0.33806 1.2973 0.31583 3.0973-0.0495 4-0.36524 0.9027-0.64183-0.15871-0.61466-2.3587z" fill="#017e73"/>
    </g>
</svg>
